<?xml version="1.0" standalone="yes"?>
<svg width="348" height="369">
<path style="fill:#ffffff; stroke:none;" d="M0 0L0 15L15 15L15 30L0 30L0 45L15 45L15 60L0 60L0 75L15 75L15 90L0 90L0 105L15 105L15 120L0 120L0 135L15 135L15 150L0 150L0 165L15 165L15 180L0 180L0 195L15 195L15 210L0 210L0 225L15 225L15 240L0 240L0 255L15 255L15 270L0 270L0 285L15 285L15 300L0 300L0 315L15 315L15 330L0 330L0 345L15 345L15 360L0 360L0 369L15 369L15 360L30 360L30 369L45 369L45 360L60 360L60 369L75 369L75 360L90 360L90 369L105 369L105 360L120 360L120 369L135 369L135 360L150 360L150 369L165 369L165 360L180 360L180 369L195 369L195 360L210 360L210 369L225 369L225 360L240 360L240 369L255 369L255 360L270 360L270 369L285 369L285 360L300 360L300 369L315 369L315 360L330 360L330 369L348 369L348 0L330 0L330 15L315 15L315 0L300 0L300 15L285 15L285 0L270 0L270 15L255 15L255 0L240 0L240 15L225 15L225 0L210 0L210 15L195 15L195 0L180 0L180 15L165 15L165 0L150 0L150 15L135 15L135 0L120 0L120 15L105 15L105 0L90 0L90 15L75 15L75 0L60 0L60 15L45 15L45 0L30 0L30 15L15 15L15 0L0 0z"/>
<path style="fill:#eeeeee; stroke:none;" d="M15 0L15 15L30 15L30 0L15 0M45 0L45 15L60 15L60 0L45 0M75 0L75 15L90 15L90 0L75 0M105 0L105 15L120 15L120 0L105 0M135 0L135 15L150 15L150 0L135 0M165 0L165 15L180 15L180 0L165 0M195 0L195 15L210 15L210 0L195 0M225 0L225 15L240 15L240 0L225 0M255 0L255 15L270 15L270 0L255 0M285 0L285 15L300 15L300 0L285 0M315 0L315 15L330 15L330 0L315 0M0 15L0 30L15 30L15 15L0 15M30 15L30 30L15 30L15 45L30 45L30 60L15 60L15 75L30 75L30 90L15 90L15 105L30 105L30 120L15 120L15 135L30 135L30 150L15 150L15 165L30 165L30 180L15 180L15 195L30 195L30 180L45 180L45 165C49.651 165 56.6476 166.295 60.8295 163.972C73.2342 157.081 75.4448 139.969 90 135L88 120L75 120L75 105L90 105C90.0022 107.799 89.3068 112.237 91.6034 114.356C98.2829 120.52 104.949 110.585 105 105L120 105L120 120L135 120L135 105L150 105C150 113.912 151.072 118.118 161 116C164.345 123.044 171.746 134.373 180 135L180 120L189 119L189 121L195 120L195 105L210 105L210 120L196 122L199 123L199 135L211 134L210 120L225 120C225.016 124.421 224.849 127.711 229 130L230 127L239 133L240 120L255 120L255 135L270 135L270 150L255 150L255 153L259 153C258.834 160.164 265.963 164.599 272 167L272 168C266.431 173.666 280.489 179.947 285 180C285.009 191.179 288.959 194.999 300 195L300 210L315 210L318 218L320 212L321 212L326 215L326 218L316 224L316 225L330 225L330 240L315 240L315 225C308.005 229.055 300.106 231.06 300 240L285 240L285 255L270 255L270 240L255 240C257.194 244.185 260.65 243.985 265 244L265 246L253 247L253 248L255 255L240 255L240 270L225 270L225 255L210 255L210 240L195 240L196 227L165 215L165 225L150 225L150 213L135 213L135 225L120 225L120 240L105 240L105 225L90 225L90 240L75 240L75 255L60 255L60 240L69 239L68 236L71 238L87 214L78 218L78 220L76 219L75 225L60 225L60 220L19 220L25 211L15 210L15 225L30 225L30 240L15 240L15 255L30 255L30 270L15 270L15 285L30 285L30 300L15 300L15 315L30 315L30 330L15 330L15 345L30 345L30 360L45 360L45 345L60 345L60 360L75 360L75 345L90 345L90 360L105 360L105 345L120 345L120 360L135 360L135 345L150 345L150 360L165 360L165 345L180 345L180 360L195 360L195 345L210 345L210 360L225 360L225 345L240 345L240 360L255 360L255 345L270 345L270 360L285 360L285 345L300 345L300 360L315 360L315 345L330 345L330 360L345 360L345 345L330 345L330 330L345 330L345 315L330 315L330 300L345 300L345 285L330 285L330 270L345 270L345 255L330 255L330 240L345 240L345 225L330 225L330 210L345 210L345 195L330 195L330 180L345 180L345 165L330 165L330 150L345 150L345 135L330 135L330 120L345 120L345 105L330 105L330 90L345 90L345 75L330 75L330 60L345 60L345 45L330 45L330 30L345 30L345 15L330 15L330 30L315 30L315 15L300 15L300 30L285 30L285 15L270 15L270 30L255 30L255 15L240 15L240 30L225 30L225 15L210 15L210 30L195 30L195 15L180 15L180 30L165 30L165 15L150 15L150 30L135 30L135 15L120 15L120 30L105 30L105 15L90 15L90 30L75 30L75 15L60 15L60 30L45 30L45 15L30 15z"/>
<path style="fill:#ffffff; stroke:none;" d="M30 30L30 45L45 45L45 60L30 60L30 75L45 75L45 90L30 90L30 105L45 105L45 120L30 120L30 135L45 135L45 150L30 150L30 165L45 165L45 150L60 150L60 135L75 135L75 120L60 120L60 105L75 105L75 90L90 90L90 105L105 105L105 90L120 90L120 105L135 105L135 90L150 90L150 105L165 105L165 120L180 120L180 105L195 105L195 90L210 90L210 105L225 105L225 120L240 120L240 105L255 105L255 120L270 120L270 135L285 135L285 150L270 150L270 165L285 165L285 180L300 180L300 195L315 195L315 210L330 210L330 195L315 195L315 180L330 180L330 165L315 165L315 150L330 150L330 135L315 135L315 120L330 120L330 105L315 105L315 90L330 90L330 75L315 75L315 60L330 60L330 45L315 45L315 30L300 30L300 45L285 45L285 30L270 30L270 45L255 45L255 30L240 30L240 45L225 45L225 30L210 30L210 45L195 45L195 30L180 30L180 45L165 45L165 30L150 30L150 45L135 45L135 30L120 30L120 45L105 45L105 30L90 30L90 45L75 45L75 30L60 30L60 45L45 45L45 30L30 30z"/>
<path style="fill:#eeeeee; stroke:none;" d="M0 45L0 60L15 60L15 45L0 45M60 45L60 60L45 60L45 75L60 75L60 90L45 90L45 105L60 105L60 90L75 90L75 75L90 75L90 90L105 90L105 75L120 75L120 90L135 90L135 75L150 75L150 90L165 90L165 105L180 105L180 90L195 90L195 75L210 75L210 90L225 90L225 105L240 105L240 90L255 90L255 105L270 105L270 120L285 120L285 135L300 135L300 150L285 150L285 165L300 165L300 180L315 180L315 165L300 165L300 150L315 150L315 135L300 135L300 120L315 120L315 105L300 105L300 90L315 90L315 75L300 75L300 60L315 60L315 45L300 45L300 60L285 60L285 45L270 45L270 60L255 60L255 45L240 45L240 60L225 60L225 45L210 45L210 60L195 60L195 45L180 45L180 60L165 60L165 45L150 45L150 60L135 60L135 45L120 45L120 60L105 60L105 45L90 45L90 60L75 60L75 45L60 45z"/>
<path style="fill:#ffffff; stroke:none;" d="M60 60L60 75L75 75L75 60L60 60M90 60L90 75L105 75L105 60L90 60M120 60L120 75L135 75L135 60L120 60M150 60L150 75L165 75L165 90L180 90L180 75L195 75L195 60L180 60L180 75L165 75L165 60L150 60M210 60L210 75L225 75L225 90L240 90L240 75L255 75L255 90L270 90L270 105L285 105L285 120L300 120L300 105L285 105L285 90L300 90L300 75L285 75L285 60L270 60L270 75L255 75L255 60L240 60L240 75L225 75L225 60L210 60z"/>
<path style="fill:#eeeeee; stroke:none;" d="M0 75L0 90L15 90L15 75L0 75M270 75L270 90L285 90L285 75L270 75M0 105L0 120L15 120L15 105L0 105z"/>
<path style="fill:#ffffff; stroke:none;" d="M75 105L75 120L88 120C87.3954 125.5 86.4995 134.649 94 134L94 133C87.0899 130.902 87.4669 120.439 92 116L90 105L75 105M105 105L104 115C109.751 117.284 113.211 122.44 109 128L109 129L152 117L150 105L135 105L135 120L120 120L120 105L105 105M195 105L195 120L190 120C190 129.598 192.177 137.653 181 140L181 123L189 119L180 120L180 135L159 116C161.924 122.561 173.48 140.418 181.004 141.508C187.552 142.458 196.66 137.658 203 136L203 135L199 135L199 123L198 123C198 129.88 198.499 134.746 191 137L191 121L210 120L210 105L195 105z"/>
<path style="fill:#e0ab16; stroke:none;" d="M91 117L91 118L99 118L100 118L100 114L91 117z"/>
<path style="fill:#7d5504; stroke:none;" d="M100 114C99.3559 119.092 99.5367 124.319 94 126L94 118L91 118L91 129L110 128L110 117L108 117L108 123L106 121L105 121L107 127C100.957 126.715 102.039 118.738 102 114L100 114z"/>
<path style="fill:#5c3604; stroke:none;" d="M102 114L102 127C106.127 124.084 105.977 117.028 102 114z"/>
<path style="fill:#feff6e; stroke:none;" d="M104 115L108 123L104 115z"/>
<path style="fill:#e9cc7d; stroke:none;" d="M90.6667 116.333L91.3333 116.667L90.6667 116.333z"/>
<path style="fill:#fef757; stroke:none;" d="M94 126C99.6102 125.064 98.9963 120.849 99 116C93.9025 117.547 94.0169 121.217 94 126z"/>
<path style="fill:#e0ab16; stroke:none;" d="M106 116L107 118L108 118L109 116L106 116z"/>
<path style="fill:#ffffff; stroke:none;" d="M153 116C148.668 126.247 139.428 135.24 132.65 144C118.982 161.666 105.078 179.17 91.6258 197C82.0343 209.713 76.7833 220 60 220L60 225L75 225L78 220C94.3349 195.301 114.514 172.317 132.79 149C140.382 139.314 153.056 127.623 157 116L153 116z"/>
<path style="fill:#af9a73; stroke:none;" d="M89 117L89 132L90 132L89 117z"/>
<path style="fill:#2d1102; stroke:none;" d="M90 117L90 130L91 130L90 117z"/>
<path style="fill:#af9a73; stroke:none;" d="M151 117L153 119L153 117L151 117z"/>
<path style="fill:#e0ab16; stroke:none;" d="M157 117L156 121L157 121L160 118L157 117z"/>
<path style="fill:#cc9c18; stroke:none;" d="M110 118L110 128L111 128L110 118z"/>
<path style="fill:#fef757; stroke:none;" d="M85 142L95 140L95 143L97 143L101 147L111 162L124.004 148L150 119C145.853 118.115 140.159 122.036 136 123.341C123.724 127.193 111.255 130.428 99 134.344C94.1766 135.885 86.8156 136.782 85 142z"/>
<path style="fill:#5c3604; stroke:none;" d="M150 118L149 122L152 118L150 118z"/>
<path style="fill:#eebc27; stroke:none;" d="M81 138L81 139L84 139L79 150L82 149L84 150L97 166L98 166L99 164C101.438 171.757 110.574 167.554 106 167L106 166L108 165L102 163L93 155L94 153L91 148L88 150L89 147L85 146L85 145L87 143C83.9644 143 84.8294 140.221 87 138.833C90.3198 136.711 95.2651 135.912 99 134.667C113.682 129.773 132.835 127.968 146 120L128 124.255L81 138z"/>
<path style="fill:#956b05; stroke:none;" d="M127 148L132 146L138 134C144.47 132.341 148.761 125.241 150 119C139.101 124.083 131.434 137.253 127 148z"/>
<path style="fill:#fef757; stroke:none;" d="M157 119L146 137C149.504 134.321 154.074 126.333 158.996 126.921C165.023 127.641 171.478 139.614 175.001 144C183.341 154.383 191.872 164.607 200.2 175C204.775 180.71 209.245 187.841 216 191L160 119L157 119z"/>
<path style="fill:#b98b0f; stroke:none;" d="M160 119L163 123L160 119z"/>
<path style="fill:#eeeeee; stroke:none;" d="M45 120L45 135L60 135L60 120L45 120z"/>
<path style="fill:#5c3604; stroke:none;" d="M155 120C147.688 128.12 133.594 142.087 132 153C139.513 146.884 144.986 137.522 151.08 130C153.538 126.966 156.863 123.858 155 120z"/>
<path style="fill:#ffffff; stroke:none;" d="M210 120L210 133L226 129L225 120L210 120M240 120C240 124.438 238.484 130.885 240.078 135C242.585 141.473 249.521 147.701 253.919 153C262.644 163.513 271.28 174.204 279.65 185C285.512 192.56 292.388 204.639 301 209L300 195C289.628 194.992 285.036 190.496 285 180C279.549 179.823 269.64 174.501 272 168L272 167C266.126 163.709 260.451 159.991 259 153L255 153L255 150L270 150L270 135L255 135L255 120L240 120z"/>
<path style="fill:#e5d5ae; stroke:none;" d="M186.667 121.333L187.333 121.667L186.667 121.333z"/>
<path style="fill:#eebc27; stroke:none;" d="M188 121L181 123L181 124L184 134L185 134C185.003 129.748 184.232 125.287 189 124L188 121z"/>
<path style="fill:#7d5504; stroke:none;" d="M189 121L184 135L186 138L190 138L189 121z"/>
<path style="fill:#8b734b; stroke:none;" d="M191 121L191 129L192 129L193 121L191 121z"/>
<path style="fill:#2d1102; stroke:none;" d="M192 122L192 130L193 130L192 122z"/>
<path style="fill:#f7d33b; stroke:none;" d="M193 124L196 123L193 124z"/>
<path style="fill:#e5d5ae; stroke:none;" d="M129.667 123.333L130.333 123.667L129.667 123.333z"/>
<path style="fill:#b98b0f; stroke:none;" d="M163 123L167 128L163 123z"/>
<path style="fill:#feff6e; stroke:none;" d="M186 123L185 134L187 134L188 123L186 123M194 123L194 131L195 131L194 123z"/>
<path style="fill:#7d5504; stroke:none;" d="M195 123L195 131L194 131L194 124L193 124L192 132L197 135L197 123L195 123z"/>
<path style="fill:#c7b796; stroke:none;" d="M197 123L197 135L198 135L197 123z"/>
<path style="fill:#e5d5ae; stroke:none;" d="M125 124L125 125L128 125L125 124z"/>
<path style="fill:#2d1102; stroke:none;" d="M181 124L181 129L183 129L183 124L181 124z"/>
<path style="fill:#e0ab16; stroke:none;" d="M103 128L107 125L103 128z"/>
<path style="fill:#5c3604; stroke:none;" d="M183 125L181 138C184.46 134.612 184.861 129.435 183 125z"/>
<path style="fill:#e9cc7d; stroke:none;" d="M119.667 126.333L120.333 126.667L119.667 126.333z"/>
<path style="fill:#7d5504; stroke:none;" d="M120 175L134.211 159L159 126C153.607 127.515 150.585 131.724 147.211 136C139.087 146.296 121.484 161.804 120 175z"/>
<path style="fill:#2d1102; stroke:none;" d="M158 127L188.576 166L209 190C202.832 164.208 171.366 149.029 161 126L158 127z"/>
<path style="fill:#8b734b; stroke:none;" d="M149 127L150 128L149 127z"/>
<path style="fill:#eebc27; stroke:none;" d="M187 127L187 132L188 132L187 127z"/>
<path style="fill:#ffffff; stroke:none;" d="M230 127C220.566 138.461 202.534 152.129 199 167L211.001 155L232 127L230 127z"/>
<path style="fill:#eebc27; stroke:none;" d="M233 127L231 130L236 130L233 127M91 132L98 128C94.5305 128.248 92.0388 128.449 91 132z"/>
<path style="fill:#e5d5ae; stroke:none;" d="M102 129L102 130L110 130L102 129z"/>
<path style="fill:#8b734b; stroke:none;" d="M148 128L149 129L148 128z"/>
<path style="fill:#5c3604; stroke:none;" d="M162 128L166 133L162 128z"/>
<path style="fill:#cc9c18; stroke:none;" d="M167 128L171 135L172 135L167 128z"/>
<path style="fill:#af9a73; stroke:none;" d="M147 129L148 130L147 129z"/>
<path style="fill:#ffffff; stroke:none;" d="M158 129L150 140C158.884 134.03 164.958 135.219 165 147L153 146L150 165L135 165L137 157C122.634 164.296 113.27 186.431 101.83 197.829C95.7574 203.881 86.7386 208.049 83 216L87 214L85 217C98.4945 210.819 108.781 199.066 123 193.142C136.804 187.391 153.006 183.737 168 185.17C177.748 186.101 187.281 189.576 197 190L197 189L195 180L180 180L180 165L191 170C185.013 156.929 169.413 137.734 158 129z"/>
<path style="fill:#8b734b; stroke:none;" d="M159 129L160 130L159 129z"/>
<path style="fill:#b3934a; stroke:none;" d="M191 129L191 137L196 134L192 135L191 129z"/>
<path style="fill:#e5d5ae; stroke:none;" d="M224 129L224 130L227 131L224 129z"/>
<path style="fill:#5c3604; stroke:none;" d="M90 130C90.9757 134.53 95.5984 131.972 99 131L99 130L90 130z"/>
<path style="fill:#af9a73; stroke:none;" d="M99 130L99 131L102 131L99 130z"/>
<path style="fill:#ffffff; stroke:none;" d="M102.667 130.333L103.333 130.667L102.667 130.333z"/>
<path style="fill:#fef757; stroke:none;" d="M184 142L197 158C206.528 153.52 217.579 138.396 224 130L184 142z"/>
<path style="fill:#7d5504; stroke:none;" d="M213 144L214 145L226 130C219.608 132.851 216.365 138.101 213 144z"/>
<path style="fill:#b98b0f; stroke:none;" d="M231 130L231 134L232 134L231 130z"/>
<path style="fill:#fef757; stroke:none;" d="M232 130L205 168C216.104 159.507 221.901 140.75 236 137L252.6 158L276 185C267.152 165.144 246.967 147.496 234 130L232 130z"/>
<path style="fill:#7d5504; stroke:none;" d="M235 130L248.661 150L280.4 190L296 210L304 216C299.481 205.325 289.196 196.033 282.004 187C267.719 169.058 253.187 143.919 235 130z"/>
<path style="fill:#ffffff; stroke:none;" d="M95 132L95 133L102 132L95 132z"/>
<path style="fill:#5c3604; stroke:none;" d="M230 131L219 148C223.167 144.608 231.317 136.729 230 131z"/>
<path style="fill:#e5d5ae; stroke:none;" d="M93 132L96 134L93 132z"/>
<path style="fill:#8b734b; stroke:none;" d="M145 132L146 133L145 132z"/>
<path style="fill:#2d1102; stroke:none;" d="M192 132L192 135L193 135L192 132z"/>
<path style="fill:#eebc27; stroke:none;" d="M199 137L199 138L218 133L199 137z"/>
<path style="fill:#5c3604; stroke:none;" d="M139 133L138 136L139 133z"/>
<path style="fill:#af9a73; stroke:none;" d="M162 133L163 134L162 133z"/>
<path style="fill:#eebc27; stroke:none;" d="M193 133L193 135L195 135L195 133L193 133z"/>
<path style="fill:#8b734b; stroke:none;" d="M163 134L164 135L163 134z"/>
<path style="fill:#a97d09; stroke:none;" d="M172 134L179 143L172 134z"/>
<path style="fill:#af9a73; stroke:none;" d="M227 134L228 135L227 134z"/>
<path style="fill:#eeeeee; stroke:none;" d="M0 135L0 150L15 150L15 135L0 135z"/>
<path style="fill:#e9cc7d; stroke:none;" d="M88.6667 135.333L89.3333 135.667L88.6667 135.333z"/>
<path style="fill:#eeeeee; stroke:none;" d="M135 165L150 165L153 146L165 147C164.992 136.375 159.074 131.63 150.09 139.595C142.684 146.16 135.271 154.759 135 165z"/>
<path style="fill:#eebc27; stroke:none;" d="M183 138L187 137L183 138z"/>
<path style="fill:#8b734b; stroke:none;" d="M141 137L142 138L141 137z"/>
<path style="fill:#f7d33b; stroke:none;" d="M145 137L131 156C135.743 152.506 145.311 143.164 145 137z"/>
<path style="fill:#956b05; stroke:none;" d="M181 140L186 139L181 140z"/>
<path style="fill:#e5d5ae; stroke:none;" d="M196 137L196 138L199 138L196 137z"/>
<path style="fill:#5c3604; stroke:none;" d="M206 151L212 149L218 137C212.627 139.721 208.326 145.505 206 151z"/>
<path style="fill:#7d5504; stroke:none;" d="M205 166L204 166L204 170L208 171C214.806 163.135 224.11 144.306 234 141L233 137C224.349 141.045 218.715 151.784 212.75 159C210.955 161.171 207.926 166.442 205 166z"/>
<path style="fill:#956b05; stroke:none;" d="M234.667 137.333L235.333 137.667L234.667 137.333z"/>
<path style="fill:#af9a73; stroke:none;" d="M140 138L141 139L140 138M166 138L167 139L166 138z"/>
<path style="fill:#c7b796; stroke:none;" d="M186.667 138.333L187.333 138.667L186.667 138.333z"/>
<path style="fill:#eebc27; stroke:none;" d="M183 141L183 142L198 139L183 141z"/>
<path style="fill:#2d1102; stroke:none;" d="M234 138L244.644 155L275.216 191.572L290 208C279.415 180.443 250.261 163.096 236 138L234 138z"/>
<path style="fill:#5c3604; stroke:none;" d="M24 217L27 216C28.4459 210.252 33.5765 204.977 36.7824 200C50.1232 179.29 74.8294 161.854 84 139C77.0528 141.101 71.5287 153.463 66.9599 159.166C52.8025 176.838 31.3224 194.923 24 217z"/>
<path style="fill:#8b734b; stroke:none;" d="M167 139L168 140L167 139z"/>
<path style="fill:#af9a73; stroke:none;" d="M223 139L224 140L223 139z"/>
<path style="fill:#7d5504; stroke:none;" d="M237 139C238.945 146.124 247.615 156.311 254 160L237 139z"/>
<path style="fill:#f7d33b; stroke:none;" d="M85 144L87 143L85 145L85 146L89 147L88 150L91 148L94 153L93 155L102 163L106 166L106 167C117.333 163.491 103.274 152.759 101 147L97 143L95 143L95 140L85 144z"/>
<path style="fill:#ffffff; stroke:none;" d="M232 140C225.198 149.025 209.226 161.955 206.733 173C205.384 178.977 215.253 187.689 218.765 191.83C222.83 196.625 222.928 200.959 225.783 205.83C231.055 214.824 245.961 223.271 256 225L255 210L270 210L270 225L285 225L285 229C296.406 227.557 307.505 224.76 317 218L315 210L301 210L305 217L299 216L300 225L285 225L285 210L270 210L270 195L255 195L255 180L265 181C258.763 167.383 243.277 149.855 232 140z"/>
<path style="fill:#b98b0f; stroke:none;" d="M83 141L82 144L83 141z"/>
<path style="fill:#7d5504; stroke:none;" d="M120 153L122 153L114 164L112 162C105.929 170.344 95.4044 179.859 93 190L101 180L102 180L101 184C111.479 175.98 126.257 157.329 131 145L127 148L131 141L120 153z"/>
<path style="fill:#8b734b; stroke:none;" d="M138 141L139 142L138 141M78 142L79 143L78 142z"/>
<path style="fill:#af9a73; stroke:none;" d="M137 142L138 143L137 142z"/>
<path style="fill:#c7b796; stroke:none;" d="M179.667 142.333L180.333 142.667L179.667 142.333z"/>
<path style="fill:#a97d09; stroke:none;" d="M181 142L181 143L184 143L181 142z"/>
<path style="fill:#af9a73; stroke:none;" d="M77 143L78 144L77 143z"/>
<path style="fill:#2d1102; stroke:none;" d="M78 143L62 165C66.9939 161.149 78.3241 149.424 78 143z"/>
<path style="fill:#af9a73; stroke:none;" d="M170 143L171 144L170 143z"/>
<path style="fill:#2d1102; stroke:none;" d="M179 143L179 144L186 149L184 143L179 143z"/>
<path style="fill:#7d5504; stroke:none;" d="M184 143L196 161L200 162L201 162L211 149L210 148L205 150L197 158L184 143z"/>
<path style="fill:#956b05; stroke:none;" d="M80 144L79 148L80 148L82 144L80 144z"/>
<path style="fill:#8b734b; stroke:none;" d="M171 144L172 145L171 144z"/>
<path style="fill:#956b05; stroke:none;" d="M179 144L204.011 176.039L218 191L206 172C201.345 169.475 198.518 166.081 197 161L196 161L195 163C191.999 156.265 185.765 147.247 179 144z"/>
<path style="fill:#af9a73; stroke:none;" d="M218 145L219 146L218 145z"/>
<path style="fill:#8b734b; stroke:none;" d="M134 146L135 147L134 146z"/>
<path style="fill:#af9a73; stroke:none;" d="M213 146L214 147L213 146M74 147L75 148L74 147z"/>
<path style="fill:#5c3604; stroke:none;" d="M186 147L191 156L186 147z"/>
<path style="fill:#2d1102; stroke:none;" d="M207 161C212.152 158.312 216.911 152.389 219 147L207 161z"/>
<path style="fill:#7d5504; stroke:none;" d="M238 147L243 152L238 147z"/>
<path style="fill:#cc9c18; stroke:none;" d="M77 148L72 159L76 160L75 163L80 163C81.7964 166.759 83.7635 168.812 88 169L89 173L93 173L92 176L97 180L107 171L107 170L99 164L98 166L97 166L96 163L84 150L82 149L79 148L77 148z"/>
<path style="fill:#ddbd47; stroke:none;" d="M129 148L130 149L129 148z"/>
<path style="fill:#8b734b; stroke:none;" d="M153 149L153 153L154 153L153 149z"/>
<path style="fill:#956b05; stroke:none;" d="M154 149L156 153L156 149L154 149z"/>
<path style="fill:#5c3604; stroke:none;" d="M156 149L156 153L157 153L156 149z"/>
<path style="fill:#af9a73; stroke:none;" d="M157 149L157 153L158 153L157 149z"/>
<path style="fill:#5c3604; stroke:none;" d="M160 151L163 150L160 152L160 153L164 153L164 149L160 151z"/>
<path style="fill:#c7b796; stroke:none;" d="M164 149L164 153L165 153L164 149z"/>
<path style="fill:#8b734b; stroke:none;" d="M175 149L176 150L175 149M131 150L132 151L131 150z"/>
<path style="fill:#f7d33b; stroke:none;" d="M155.333 150.667L155.667 151.333L155.333 150.667z"/>
<path style="fill:#eebc27; stroke:none;" d="M160 152L163 150L160 152z"/>
<path style="fill:#eeeeee; stroke:none;" d="M166 150L165 165L150 165L150 180L165 180L165 165L180 165C179.967 155.516 175.672 150.034 166 150z"/>
<path style="fill:#8b734b; stroke:none;" d="M214 150L215 151L214 150z"/>
<path style="fill:#eeeeee; stroke:none;" d="M225 165C219.754 165 200.94 170.526 211.603 178.972C214.55 181.306 221.435 180 225 180L225 195L240 195L240 210L255 210L255 195L240 195L240 180L255 180C254.938 169.049 252.248 165.001 241 165L240 180L225 180L225 165L233 164L233 163L228 163L228 157C229.979 157.069 232.011 157.333 233.989 157.271C246.754 156.868 232.2 143.81 226.028 151.603C223.694 154.551 225 161.435 225 165z"/>
<path style="fill:#8b734b; stroke:none;" d="M71 151L72 152L71 151z"/>
<path style="fill:#af9a73; stroke:none;" d="M130 151L131 152L130 151z"/>
<path style="fill:#2d1102; stroke:none;" d="M131 151L122 164C125.425 161.971 131.937 155.126 131 151z"/>
<path style="fill:#af9a73; stroke:none;" d="M213 151L214 152L213 151M70 152L71 153L70 152z"/>
<path style="fill:#5c3604; stroke:none;" d="M119 153L113 164L114 164L122 153L119 153z"/>
<path style="fill:#c7b796; stroke:none;" d="M154 153L154 154L157 154L154 153M160 153L160 154L164 154L160 153z"/>
<path style="fill:#af9a73; stroke:none;" d="M178 153L179 154L178 153M243 153L244 154L243 153z"/>
<path style="fill:#ddbd47; stroke:none;" d="M137 154L138 155L137 154z"/>
<path style="fill:#8b734b; stroke:none;" d="M179 154L180 155L179 154M68 155L69 156L68 155M127 155L128 156L127 155z"/>
<path style="fill:#7d5504; stroke:none;" d="M129 155L125 162L131 155L129 155z"/>
<path style="fill:#2d1102; stroke:none;" d="M191 155L195 163L196 163L191 155z"/>
<path style="fill:#8b734b; stroke:none;" d="M210 155L211 156L210 155z"/>
<path style="fill:#a97d09; stroke:none;" d="M213 155L214 156L213 155z"/>
<path style="fill:#af9a73; stroke:none;" d="M67 156L68 157L67 156z"/>
<path style="fill:#a97d09; stroke:none;" d="M71 156C65.2353 165.539 57.2189 176.309 50.1111 184.91C46.074 189.796 40.3104 192.985 42 200L59 197L61 198L63 203L65 201L70 204L71 204L72 202L79 206C84.7032 197.819 98.203 187.644 97 177L92 176L93 173L89 173L88 169L80 163L75 163L76 160L71 156z"/>
<path style="fill:#b98b0f; stroke:none;" d="M124 165L132 156L124 165z"/>
<path style="fill:#b3934a; stroke:none;" d="M153 156L153 161L154 161L154 158L155 158L155 160L156 160L157 156L153 156M160 156L160 157L164 157L160 156z"/>
<path style="fill:#af9a73; stroke:none;" d="M209 156L210 157L209 156z"/>
<path style="fill:#7d5504; stroke:none;" d="M211 156L211 158L213 156L211 156z"/>
<path style="fill:#af9a73; stroke:none;" d="M122 157L123 158L122 157z"/>
<path style="fill:#5c3604; stroke:none;" d="M156 157L156 160L155 160L155 158L154 158L157 161L156 157z"/>
<path style="fill:#af9a73; stroke:none;" d="M157 157L157 161L158 161L157 157z"/>
<path style="fill:#956b05; stroke:none;" d="M160 157L160 160L163 160L163 157L160 157z"/>
<path style="fill:#2d1102; stroke:none;" d="M163 157L160 160L160 161L164 161L163 157z"/>
<path style="fill:#c7b796; stroke:none;" d="M164 157L164 161L165 161L164 157z"/>
<path style="fill:#fdea4c; stroke:none;" d="M162 158L163 159L162 158z"/>
<path style="fill:#e5d5ae; stroke:none;" d="M228 158L228 163L229 163L228 158z"/>
<path style="fill:#af9a73; stroke:none;" d="M229 158L229 159L233 159L229 158M236 158L236 159L240 159L236 158z"/>
<path style="fill:#8b734b; stroke:none;" d="M124 159L125 160L124 159M183 159L184 160L183 159z"/>
<path style="fill:#5c3604; stroke:none;" d="M229 159L229 163L230 163L231 160L232 163L233 163L233 159L229 159z"/>
<path style="fill:#b3934a; stroke:none;" d="M235 159L235 163L236 163L235 159z"/>
<path style="fill:#956b05; stroke:none;" d="M236 159L239 163L238 159L236 159z"/>
<path style="fill:#5c3604; stroke:none;" d="M238 159L239 163L240 163L238 159z"/>
<path style="fill:#8b734b; stroke:none;" d="M64 160L65 161L64 160z"/>
<path style="fill:#af9a73; stroke:none;" d="M123 160L124 161L123 160z"/>
<path style="fill:#cc9c18; stroke:none;" d="M197 160L198 166L199 166L201 163L201 162L197 160z"/>
<path style="fill:#8b734b; stroke:none;" d="M206 160L207 161L206 160z"/>
<path style="fill:#a97d09; stroke:none;" d="M209 160L210 161L209 160z"/>
<path style="fill:#b98b0f; stroke:none;" d="M230 160L230 163L232 163L232 160L230 160z"/>
<path style="fill:#af9a73; stroke:none;" d="M63 161L64 162L63 161z"/>
<path style="fill:#a97d09; stroke:none;" d="M189 161L190 162L189 161z"/>
<path style="fill:#5c3604; stroke:none;" d="M204 171L209 161C204.363 161.779 198.869 167.237 204 171M121 163L90 205C102.366 196.099 115.465 176.69 124 164L121 163z"/>
<path style="fill:#af9a73; stroke:none;" d="M186 163L187 164L186 163z"/>
<path style="fill:#8b734b; stroke:none;" d="M61 164L62 165L61 164M187 164L188 165L187 164z"/>
<path style="fill:#7d5504; stroke:none;" d="M252 164L256 168L252 164z"/>
<path style="fill:#eeeeee; stroke:none;" d="M0 165L0 180L15 180L15 165L0 165z"/>
<path style="fill:#af9a73; stroke:none;" d="M60 165L61 166L60 165z"/>
<path style="fill:#cc9c18; stroke:none;" d="M123 165L120 170L123 165z"/>
<path style="fill:#eeeeee; stroke:none;" d="M128 172L120 180L135 180L135 165C130.533 165.697 128.697 167.533 128 172M180 165L180 180L195 180L195 190L195 191L224 205L226 199C206.171 194.993 198.939 165.615 180 165z"/>
<path style="fill:#8b734b; stroke:none;" d="M188 165L189 166L188 165z"/>
<path style="fill:#af9a73; stroke:none;" d="M115 166L116 167L115 166z"/>
<path style="fill:#a97d09; stroke:none;" d="M193 166L194 167L193 166z"/>
<path style="fill:#b3934a; stroke:none;" d="M201 166L202 167L201 166z"/>
<path style="fill:#e5d5ae; stroke:none;" d="M228 166L228 171L229 171L228 166z"/>
<path style="fill:#7d5504; stroke:none;" d="M229 166L229 170L233 170L233 166L229 166z"/>
<path style="fill:#af9a73; stroke:none;" d="M235 166L235 171L240 171L240 170L236 170L235 166z"/>
<path style="fill:#7d5504; stroke:none;" d="M236 166L236 170L240 170L240 166L236 166z"/>
<path style="fill:#c7b796; stroke:none;" d="M199.667 167.333L200.333 167.667L199.667 167.333z"/>
<path style="fill:#ddbd47; stroke:none;" d="M237.333 167.667L237.667 168.333L237.333 167.667M256.333 168.667L256.667 169.333L256.333 168.667z"/>
<path style="fill:#8b734b; stroke:none;" d="M57 169L58 170L57 169z"/>
<path style="fill:#af9a73; stroke:none;" d="M116 169L117 170L116 169M191 169L192 170L191 169z"/>
<path style="fill:#e0ab16; stroke:none;" d="M205 169L204 170L204 171L204 172L207 169L205 169z"/>
<path style="fill:#af9a73; stroke:none;" d="M267 169L268 170L267 169M112 170L113 171L112 170z"/>
<path style="fill:#956b05; stroke:none;" d="M118 170L96 200C105.752 198.75 121.574 179.944 120 170L118 170z"/>
<path style="fill:#8b734b; stroke:none;" d="M192 170L193 171L192 170M229 170L229 171L233 171L229 170z"/>
<path style="fill:#cc9c18; stroke:none;" d="M257 170L258 171L257 170z"/>
<path style="fill:#a97d09; stroke:none;" d="M197 171L198 172L197 171z"/>
<path style="fill:#956b05; stroke:none;" d="M57 173C48.0052 183.389 31.5375 198.844 30 213L31 213L32 210C34.1896 212.737 35.0313 212.461 37 210L41 215L42 215L44 215L45 215L46 213L49 213L50 213C55.1967 218.962 70.5303 209.443 73 219L77 213C81.5849 211.806 83.8975 208.687 84 204C88.5849 202.806 90.8975 199.687 91 195L95 194L94 191C97.1272 190.168 97.9253 189.233 98 186L102 185L102 180L101 180C99.0328 182.648 95.1462 190.202 92 188L79 206L71 204L70 204L65 201L64 203L63 203L61 198L59 197L42 200C40.5912 188.882 57.6916 184.117 57 173z"/>
<path style="fill:#af9a73; stroke:none;" d="M113 173L114 174L113 173z"/>
<path style="fill:#e5d5ae; stroke:none;" d="M205.333 173.667L205.667 174.333L205.333 173.667z"/>
<path style="fill:#ddbd47; stroke:none;" d="M260 173L262 176L260 173z"/>
<path style="fill:#af9a73; stroke:none;" d="M53 174L54 175L53 174M195 174L196 175L195 174z"/>
<path style="fill:#8b734b; stroke:none;" d="M196 175L197 176L196 175z"/>
<path style="fill:#cc9c18; stroke:none;" d="M262 176L263 177L262 176z"/>
<path style="fill:#af9a73; stroke:none;" d="M50 178L51 179L50 178M105 179L106 180L105 179M199 179L200 180L199 179z"/>
<path style="fill:#cc9c18; stroke:none;" d="M265 179L268 183L265 179z"/>
<path style="fill:#8b734b; stroke:none;" d="M200 180L201 181L200 180z"/>
<path style="fill:#eeeeee; stroke:none;" d="M255 180L255 195L270 195L270 210L285 210L285 225L300 225L300 214C282.421 206.01 274.73 180.013 255 180z"/>
<path style="fill:#7d5504; stroke:none;" d="M205 181L209 190L210 190L205 181z"/>
<path style="fill:#af9a73; stroke:none;" d="M106 182L107 183L106 182z"/>
<path style="fill:#5c3604; stroke:none;" d="M272 182C275.485 190.285 282.881 199.555 290 205C286.95 197.126 278.669 187.147 272 182z"/>
<path style="fill:#af9a73; stroke:none;" d="M46 183L47 184L46 183z"/>
<path style="fill:#b98b0f; stroke:none;" d="M268 183L269 184L268 183z"/>
<path style="fill:#af9a73; stroke:none;" d="M203 184L204 185L203 184z"/>
<path style="fill:#5c3604; stroke:none;" d="M99 185L98 188L99 185z"/>
<path style="fill:#e5d5ae; stroke:none;" d="M151 185L151 186L157 186L151 185z"/>
<path style="fill:#fef757; stroke:none;" d="M113 201C130.649 196.173 147.313 189.723 166 190.529C184.836 191.342 200.175 200.029 217 207L218 204L212 197C185.146 188.668 166.28 182.489 138 189.526C129.714 191.588 118.907 194.533 113 201z"/>
<path style="fill:#8b734b; stroke:none;" d="M204 185L205 186L204 185z"/>
<path style="fill:#f7d33b; stroke:none;" d="M276 185L288 200L276 185z"/>
<path style="fill:#eebc27; stroke:none;" d="M127 193L153 187C147.029 184.518 130.77 187.596 127 193z"/>
<path style="fill:#b98b0f; stroke:none;" d="M210 187L208 190L208 191L224 199C221.371 192.368 215.695 190.587 210 187z"/>
<path style="fill:#cc9c18; stroke:none;" d="M271 187L272 188L271 187M272 188L273 189L272 188z"/>
<path style="fill:#ddbd47; stroke:none;" d="M273 189L275 192L273 189z"/>
<path style="fill:#5c3604; stroke:none;" d="M95 190L94 193L95 190z"/>
<path style="fill:#f7d33b; stroke:none;" d="M160 191L160 192L205 204C204.045 198.485 198.731 197.91 194 196.333C183.904 192.968 170.648 188.553 160 191z"/>
<path style="fill:#af9a73; stroke:none;" d="M99 191L100 192L99 191z"/>
<path style="fill:#e0ab16; stroke:none;" d="M160 192L160 193L167 193L160 192z"/>
<path style="fill:#af9a73; stroke:none;" d="M39 192L40 193L39 192z"/>
<path style="fill:#cc9c18; stroke:none;" d="M109 202L106 203L106 204L127 193C121.955 191.527 110.089 196.76 109 202z"/>
<path style="fill:#b98b0f; stroke:none;" d="M136 193L136 194L160 193L136 193M275 192L277 194L277 192L275 192z"/>
<path style="fill:#7d5504; stroke:none;" d="M114 201L114 202C139.449 196.677 159.077 191.398 185 199.455C202.195 204.8 214.505 217.421 230 225.602C244.665 233.345 260.711 235 277 235C265.573 229.509 251.002 232.327 239 226.783C226.181 220.862 216.478 210.775 204 204.36C178.137 191.062 140.435 186.924 114 201z"/>
<path style="fill:#5c3604; stroke:none;" d="M92 194L91 197L92 194z"/>
<path style="fill:#b98b0f; stroke:none;" d="M146 194L146 195L161 195L146 194z"/>
<path style="fill:#a97d09; stroke:none;" d="M277 194L278 195L277 194z"/>
<path style="fill:#eeeeee; stroke:none;" d="M0 195L0 210L15 210L15 195L0 195z"/>
<path style="fill:#8b734b; stroke:none;" d="M37 195L38 196L37 195z"/>
<path style="fill:#cc9c18; stroke:none;" d="M128.667 195.333L129.333 195.667L128.667 195.333z"/>
<path style="fill:#e0ab16; stroke:none;" d="M87 222C115.456 204.22 141.32 191.053 176 199.745C198.286 205.331 212.91 220.155 233 229.68C250.785 238.112 270.954 238.549 290 235C283.673 232.272 277.522 234.834 271 234.985C261.436 235.208 251.012 233.508 242 230.302C227.365 225.094 216.449 214.496 203 207.178C182.986 196.289 159.58 192.188 137 195.92C122.781 198.27 110.501 203.66 98.0008 210.716C93.3556 213.338 86.8899 216.038 87 222z"/>
<path style="fill:#af9a73; stroke:none;" d="M36 196L37 197L36 196z"/>
<path style="fill:#eeeeee; stroke:none;" d="M143 197L143 198L150 198L150 205L165 208L165 199L143 197z"/>
<path style="fill:#e9cc7d; stroke:none;" d="M160 197L160 198L164 198L160 197z"/>
<path style="fill:#b98b0f; stroke:none;" d="M279 197L281 199L281 197L279 197z"/>
<path style="fill:#ffffff; stroke:none;" d="M69 244L68 244L69 236L68 236L69 239L60 240L60 255L75 255L75 240L90 240L90 225L105 225L105 240L120 240L120 225L135 225L135 213L150 213L150 225L165 225L165 214C140.439 210.896 121.535 213.563 98 220L98 219C118.238 213.17 133.243 206 155 206L155 205L150 205L150 198C119.485 198 81.998 214.262 69 244M160 198L160 199L165 199L165 208C176.913 210.31 188.203 213.568 199 219.323C218.074 229.49 234.148 243.513 257 244L255 240L270 240L270 255L285 255L285 240L300 240C300.287 231.192 308.863 229.825 315 225L315 240L330 240L330 225L316 225L316 224L326 218L326 215L321 212L320 212L318 217L324 215C318.536 221.295 311.362 225.474 304 229.218C282.11 240.352 256.06 240.138 234 229.68C208.257 217.475 190.591 198.003 160 198z"/>
<path style="fill:#f7d33b; stroke:none;" d="M211 198L211 199L223 205L211 198z"/>
<path style="fill:#af9a73; stroke:none;" d="M224.333 198.667L224.667 199.333L224.333 198.667z"/>
<path style="fill:#8b734b; stroke:none;" d="M93 199L94 200L93 199z"/>
<path style="fill:#e0ab16; stroke:none;" d="M92 204L99 199L92 204z"/>
<path style="fill:#af9a73; stroke:none;" d="M92 200L93 201L92 200z"/>
<path style="fill:#ddbd47; stroke:none;" d="M288 200L292 205L288 200z"/>
<path style="fill:#af9a73; stroke:none;" d="M32 201L33 202L32 201z"/>
<path style="fill:#a97d09; stroke:none;" d="M93 212L115 202L106 204L106 203L109 202C103.239 200.488 96.161 207.718 93 212z"/>
<path style="fill:#eebc27; stroke:none;" d="M205 201L204 205L217 212L218 212L219 208L205 201z"/>
<path style="fill:#feff6e; stroke:none;" d="M214 201L218 204L216 206C242.694 230.348 272.261 240.401 307 227L307 226C282.3 230.185 261.282 234.195 239 218.56C234.283 215.251 226.722 210.686 225 205L214 201z"/>
<path style="fill:#ddbd47; stroke:none;" d="M283 202L284 203L283 202z"/>
<path style="fill:#5c3604; stroke:none;" d="M85 203L84 206L85 203z"/>
<path style="fill:#e9cc7d; stroke:none;" d="M188.667 203.333L189.333 203.667L188.667 203.333z"/>
<path style="fill:#8b734b; stroke:none;" d="M30 204L31 205L30 204z"/>
<path style="fill:#a97d09; stroke:none;" d="M89 204L86 210L94 204L89 204z"/>
<path style="fill:#e5d5ae; stroke:none;" d="M114.667 204.333L115.333 204.667L114.667 204.333z"/>
<path style="fill:#a97d09; stroke:none;" d="M289 205L289 209L296 210L294 204L289 205z"/>
<path style="fill:#af9a73; stroke:none;" d="M29 205L30 206L29 205z"/>
<path style="fill:#2d1102; stroke:none;" d="M30 205L19 220C23.7706 217.995 30.2681 210.297 30 205z"/>
<path style="fill:#e9cc7d; stroke:none;" d="M136 206L136 207L140 207L136 206z"/>
<path style="fill:#f7d33b; stroke:none;" d="M128 208L128 209L168 209C157.53 203.968 139.077 205.363 128 208z"/>
<path style="fill:#cc9c18; stroke:none;" d="M141 206L141 207L150 207L141 206M224 206L229 209L224 206z"/>
<path style="fill:#ddbd47; stroke:none;" d="M287 207L288 208L287 207z"/>
<path style="fill:#feff6e; stroke:none;" d="M127 208L124 210L124 211C139.563 209.772 154.622 208.484 170 212.745C189.692 218.202 203.784 231.165 222 239.124C234.1 244.411 246.304 244.643 259 247C252.184 241.835 238.362 242.513 230 238.822C209.422 229.738 193.534 215.263 171 209.899C156.486 206.444 141.21 210.773 127 208z"/>
<path style="fill:#cc9c18; stroke:none;" d="M291 209L291 210L302 215C299.102 211.298 295.814 208.682 291 209z"/>
<path style="fill:#8b734b; stroke:none;" d="M26 209L27 210L26 209z"/>
<path style="fill:#eebc27; stroke:none;" d="M113 212L113 213L124 213L127 210L113 212z"/>
<path style="fill:#ddbd47; stroke:none;" d="M137 209L137 210L142 210L137 209z"/>
<path style="fill:#a97d09; stroke:none;" d="M124 211L124 212L162.715 212.59L185 218C168.172 207.411 142.817 208.622 124 211z"/>
<path style="fill:#e0ab16; stroke:none;" d="M169 209L169 210L173 210L169 209z"/>
<path style="fill:#cc9c18; stroke:none;" d="M218 212L217 212L216 210C217.179 216.243 225.33 219.779 231 221C231.457 216.136 219.401 205.594 218 212z"/>
<path style="fill:#a97d09; stroke:none;" d="M228 209L238 217L238 216L228 209z"/>
<path style="fill:#af9a73; stroke:none;" d="M25 210L26 211L25 210z"/>
<path style="fill:#7d5504; stroke:none;" d="M32 210L31 213L29 211L26 217C40.4714 217 59.1279 220.1 73 216L73 215L50 213L49 213L45 215L44 215L43 213L41 215L37 210L32 210M82 215L87 210L82 215z"/>
<path style="fill:#e5d5ae; stroke:none;" d="M117 210L117 211L120 211L117 210z"/>
<path style="fill:#eebc27; stroke:none;" d="M173 210L173 211L176 211L173 210z"/>
<path style="fill:#e5d5ae; stroke:none;" d="M176 210L176 211L179 211L176 210z"/>
<path style="fill:#eeeeee; stroke:none;" d="M255 210L255 226L285 229L285 225L270 225L270 210L255 210z"/>
<path style="fill:#e9cc7d; stroke:none;" d="M130 211L130 212L149 212L130 211z"/>
<path style="fill:#ddbd47; stroke:none;" d="M176 211L176 212L191 216L176 211z"/>
<path style="fill:#5c3604; stroke:none;" d="M78 212L77 215L78 212z"/>
<path style="fill:#af9a73; stroke:none;" d="M91 212L92 213L91 212z"/>
<path style="fill:#5c3604; stroke:none;" d="M85 220L94 212L85 220z"/>
<path style="fill:#e5d5ae; stroke:none;" d="M124 212L124 213L128 213L124 212M152 212L152 213L157 213L152 212z"/>
<path style="fill:#e0ab16; stroke:none;" d="M157 212L157 213C181.674 216.323 197.169 232.787 219 242.127C231.036 247.277 244.187 247 257 247C245.6 242.216 231.848 244.781 220 239.56C198.368 230.028 182.276 212.662 157 212z"/>
<path style="fill:#cc9c18; stroke:none;" d="M103 217L103 218L118 214C112.839 211.855 107.562 214.407 103 217z"/>
<path style="fill:#af9a73; stroke:none;" d="M22 214L23 215L22 214z"/>
<path style="fill:#8b734b; stroke:none;" d="M79 219L83 215L79 219z"/>
<path style="fill:#b3934a; stroke:none;" d="M304.333 215.667L304.667 216.333L304.333 215.667z"/>
<path style="fill:#e9cc7d; stroke:none;" d="M321 215L321 216L324 217L321 215z"/>
<path style="fill:#e0ab16; stroke:none;" d="M23 219C35.2907 220.351 48.5797 219 61 219C65.5715 219 71.2596 220.227 74 216L39 217L23 219z"/>
<path style="fill:#af9a73; stroke:none;" d="M87 216L88 217L87 216z"/>
<path style="fill:#eebc27; stroke:none;" d="M191 216L191 217L203 222L203 221L191 216z"/>
<path style="fill:#e0ab16; stroke:none;" d="M266 229L266 230C283.329 230.744 311.544 231.915 323 216C315.378 217.375 309.319 222.97 302 225.403C289.625 229.517 278.694 229.105 266 229z"/>
<path style="fill:#e9cc7d; stroke:none;" d="M102 217L98 219L98 220L102 217M174.667 217.333L175.333 217.667L174.667 217.333z"/>
<path style="fill:#f7d33b; stroke:none;" d="M237 217L237 218L249 224L237 217z"/>
<path style="fill:#8b734b; stroke:none;" d="M19 218L20 219L19 218z"/>
<path style="fill:#e9cc7d; stroke:none;" d="M177.667 218.333L178.333 218.667L177.667 218.333z"/>
<path style="fill:#7d5504; stroke:none;" d="M184 218L184 219L195 223L184 218z"/>
<path style="fill:#e9cc7d; stroke:none;" d="M20 219L20 220L24 220L20 219z"/>
<path style="fill:#ddbd47; stroke:none;" d="M25 219L25 220L74 220C61.348 214.691 38.7879 219 25 219z"/>
<path style="fill:#af9a73; stroke:none;" d="M84 219L83 221L84 219z"/>
<path style="fill:#a97d09; stroke:none;" d="M231 219L231 221L227 220L227 221C234.776 225.816 243.781 230.246 253 231L231 219M68 244L69 244L87 223L87 221L86 220C77.5684 223.943 70.5799 235.229 68 244z"/>
<path style="fill:#ddbd47; stroke:none;" d="M203 222L206 224L203 222z"/>
<path style="fill:#5c3604; stroke:none;" d="M194 223L194 224L209 233C206.133 227.683 199.845 224.127 194 223z"/>
<path style="fill:#e5d5ae; stroke:none;" d="M249.667 223.333L250.333 223.667L249.667 223.333z"/>
<path style="fill:#fef757; stroke:none;" d="M307 225L307 226L313 224L307 225z"/>
<path style="fill:#e0ab16; stroke:none;" d="M206 224C211.32 230.269 220.927 236.253 229 238L229 237L206 224z"/>
<path style="fill:#fdea4c; stroke:none;" d="M249 224L249 225L266 230L249 224z"/>
<path style="fill:#a97d09; stroke:none;" d="M309 225L309 226L313 225L309 225z"/>
<path style="fill:#eeeeee; stroke:none;" d="M0 225L0 240L15 240L15 225L0 225z"/>
<path style="fill:#ffffff; stroke:none;" d="M45 225L45 240L30 240L30 255L45 255L45 270L30 270L30 285L45 285L45 300L30 300L30 315L45 315L45 330L30 330L30 345L45 345L45 330L60 330L60 345L75 345L75 330L90 330L90 345L105 345L105 330L120 330L120 345L135 345L135 330L150 330L150 345L165 345L165 330L180 330L180 345L195 345L195 330L210 330L210 345L225 345L225 330L240 330L240 345L255 345L255 330L270 330L270 345L285 345L285 330L300 330L300 345L315 345L315 330L330 330L330 315L315 315L315 300L330 300L330 285L315 285L315 270L330 270L330 255L315 255L315 240L300 240L300 255L285 255L285 270L270 270L270 255L255 255L255 270L240 270L240 285L225 285L225 270L210 270L210 255L195 255L195 240L180 240L180 225L165 225L165 240L150 240L150 225L135 225L135 240L120 240L120 255L105 255L105 240L90 240L90 255L75 255L75 270L60 270L60 255L45 255L45 240L60 240L60 225L45 225z"/>
<path style="fill:#e9cc7d; stroke:none;" d="M301.667 225.333L302.333 225.667L301.667 225.333z"/>
<path style="fill:#a97d09; stroke:none;" d="M283 233L283 234C292.638 233.999 300.634 231.882 309 227L283 233z"/>
<path style="fill:#ffffff; stroke:none;" d="M195 228L195 240L210 240L210 255L225 255L225 270L240 270L240 255L255 255L255 248C241.67 248 229.154 246.61 217 240.742C209.438 237.09 202.872 230.611 195 228z"/>
<path style="fill:#e5d5ae; stroke:none;" d="M288 228L288 229L291 229L288 228z"/>
<path style="fill:#e9cc7d; stroke:none;" d="M273 229L273 230L283 230L273 229z"/>
<path style="fill:#7d5504; stroke:none;" d="M209 232C213.144 239.356 225.993 243.202 234 244L234 243L209 232z"/>
<path style="fill:#ddbd47; stroke:none;" d="M272 233L272 234L281 234L272 233M73 236L74 237L73 236z"/>
<path style="fill:#e9cc7d; stroke:none;" d="M255.667 236.333L256.333 236.667L255.667 236.333z"/>
<path style="fill:#e5d5ae; stroke:none;" d="M229.667 237.333L230.333 237.667L229.667 237.333M262 237L262 238L276 238L262 237z"/>
<path style="fill:#f7d33b; stroke:none;" d="M229 238L229 239L235 241L229 238z"/>
<path style="fill:#eeeeee; stroke:none;" d="M135 240L135 255L120 255L120 270L105 270L105 255L90 255L90 270L75 270L75 285L60 285L60 270L45 270L45 285L60 285L60 300L45 300L45 315L60 315L60 330L75 330L75 315L90 315L90 330L105 330L105 315L120 315L120 330L135 330L135 315L150 315L150 330L165 330L165 315L180 315L180 330L195 330L195 315L210 315L210 330L225 330L225 315L240 315L240 330L255 330L255 315L270 315L270 330L285 330L285 315L300 315L300 330L315 330L315 315L300 315L300 300L315 300L315 285L300 285L300 270L315 270L315 255L300 255L300 270L285 270L285 285L270 285L270 270L255 270L255 285L240 285L240 300L225 300L225 285L210 285L210 270L195 270L195 255L180 255L180 240L165 240L165 255L150 255L150 240L135 240z"/>
<path style="fill:#cc9c18; stroke:none;" d="M235 240L235 241L265 246L265 244L235 240z"/>
<path style="fill:#e5d5ae; stroke:none;" d="M245 242L245 243L248 243L245 242z"/>
<path style="fill:#e9cc7d; stroke:none;" d="M228 245L228 246L232 246L228 245M233 246L233 247L237 247L233 246z"/>
<path style="fill:#e5d5ae; stroke:none;" d="M241 247L241 248L253 248L241 247z"/>
<path style="fill:#eeeeee; stroke:none;" d="M0 255L0 270L15 270L15 255L0 255z"/>
<path style="fill:#ffffff; stroke:none;" d="M135 255L135 270L120 270L120 285L105 285L105 270L90 270L90 285L75 285L75 300L60 300L60 315L75 315L75 300L90 300L90 315L105 315L105 300L120 300L120 315L135 315L135 300L150 300L150 315L165 315L165 300L180 300L180 315L195 315L195 300L210 300L210 315L225 315L225 300L210 300L210 285L195 285L195 270L180 270L180 255L165 255L165 270L150 270L150 255L135 255z"/>
<path style="fill:#eeeeee; stroke:none;" d="M135 270L135 285L120 285L120 300L135 300L135 285L150 285L150 300L165 300L165 285L180 285L180 300L195 300L195 285L180 285L180 270L165 270L165 285L150 285L150 270L135 270M0 285L0 300L15 300L15 285L0 285M90 285L90 300L105 300L105 285L90 285z"/>
<path style="fill:#ffffff; stroke:none;" d="M255 285L255 300L240 300L240 315L255 315L255 300L270 300L270 315L285 315L285 300L300 300L300 285L285 285L285 300L270 300L270 285L255 285z"/>
<path style="fill:#eeeeee; stroke:none;" d="M0 315L0 330L15 330L15 315L0 315M0 345L0 360L15 360L15 345L0 345M15 360L15 369L30 369L30 360L15 360M45 360L45 369L60 369L60 360L45 360M75 360L75 369L90 369L90 360L75 360M105 360L105 369L120 369L120 360L105 360M135 360L135 369L150 369L150 360L135 360M165 360L165 369L180 369L180 360L165 360M195 360L195 369L210 369L210 360L195 360M225 360L225 369L240 369L240 360L225 360M255 360L255 369L270 369L270 360L255 360M285 360L285 369L300 369L300 360L285 360M315 360L315 369L330 369L330 360L315 360z"/>
</svg>
